<svg xmlns="http://www.w3.org/2000/svg">
    <g viewBox="0 0 10 10" id="main-logo" fill="#FFFFFF">
        <path class="dot" fill="#FFFFFF"
            d="M55.3416 12.4541C55.3416 13.0981 55.1503 13.5845 54.7678 13.9133C54.3555 14.2364 53.8468 14.4119 53.323 14.4119C52.7992 14.4119 52.2906 14.2364 51.8782 13.9133C51.4957 13.5858 51.3051 13.0994 51.3065 12.4541C51.3079 11.8088 51.4985 11.3272 51.8782 11.0093C52.2912 10.6876 52.7996 10.5129 53.323 10.5129C53.8465 10.5129 54.3549 10.6876 54.7678 11.0093C55.1503 11.3382 55.3416 11.8198 55.3416 12.4541Z"></path>
        <path d="M3.83075 0.295195H0.179566V14.1115H3.83075V0.295195Z"></path>
        <path
            d="M5.38906 0.295195H16.8359V3.55216H12.9474V14.1115H9.29618V3.55216H5.38906V0.295195Z"></path>
        <path
            d="M30.2559 0.295195H33.711V14.1115H30.0578V6.76991L27.098 11.3086H25.0072L22.0454 6.74927V14.1115H18.3942V0.295195H21.8493L26.0516 6.76991L30.2559 0.295195Z"></path>
        <path
            d="M37.5583 12.3344C36.269 10.9584 35.6244 9.24806 35.6244 7.20335C35.6244 5.15863 36.269 3.44827 37.5583 2.07228C38.849 0.696296 40.6715 0.00830078 43.0258 0.00830078C45.3801 0.00830078 47.2026 0.696296 48.4933 2.07228C49.7867 3.45378 50.4334 5.16551 50.4334 7.20747C50.4334 9.24944 49.7888 10.9598 48.4995 12.3385C47.2102 13.7214 45.3877 14.4094 43.032 14.4025C40.6763 14.3956 38.8538 13.7076 37.5645 12.3385L37.5583 12.3344ZM45.7255 9.99178C46.3626 9.27902 46.6818 8.35092 46.6832 7.20747C46.6846 6.06403 46.3633 5.13523 45.7193 4.4211C45.0808 3.71109 44.183 3.35608 43.0258 3.35608C41.8686 3.35608 40.9701 3.71109 40.3302 4.4211C39.6932 5.13111 39.3746 6.05852 39.3746 7.20335C39.3746 8.34817 39.6932 9.27627 40.3302 9.98766C40.9701 10.6977 41.8686 11.0527 43.0258 11.0527C44.183 11.0527 45.0808 10.6977 45.7193 9.98766"></path>
        <path
            d="M0 25.8163C0 24.0124 0.67217 22.6316 2.01651 21.6739C3.36085 20.7162 5.07052 20.2346 7.14551 20.2291C9.62229 20.2291 11.7427 20.7348 13.5067 21.7462V26.3468C11.8817 25.1208 9.8968 24.5257 7.55211 24.5614C5.94634 24.5779 5.14345 24.9839 5.14345 25.7792C5.14345 26.1576 5.387 26.4954 5.8741 26.7926C6.448 27.1312 7.06528 27.3902 7.70898 27.5625C8.51365 27.7958 9.30411 28.0756 10.0764 28.4004C10.8929 28.7371 11.6847 29.1309 12.4458 29.579C13.2388 30.0601 13.8921 30.7404 14.3407 31.5522C14.7893 32.364 15.0177 33.279 15.0031 34.2064C15.0031 38.0688 12.4768 40 7.42415 40C4.66392 40 2.23667 39.4221 0.142415 38.2663V33.5294C2.16699 34.9396 4.57926 35.6867 7.04644 35.6677C8.05642 35.6677 8.77812 35.5735 9.21156 35.385C9.41073 35.3106 9.58098 35.1746 9.69754 34.9968C9.8141 34.819 9.87089 34.6086 9.85965 34.3963C9.85965 33.9092 9.52322 33.4861 8.84623 33.1249C8.0554 32.7164 7.23089 32.3766 6.38184 32.1094C5.39985 31.7854 4.43536 31.4107 3.49226 30.9866C2.51729 30.5467 1.67003 29.8663 1.02993 29.0093C0.341214 28.0899 -0.0166311 26.9647 0.0144478 25.8163"></path>
        <path d="M15.6987 20.6461H31.3994V25.1125H26.066V39.5934H21.0588V25.1125H15.6987V20.6461Z"></path>
        <path
            d="M45.3911 20.6461H50.3983V32.3654C50.427 33.6008 50.1772 34.8268 49.6677 35.9526C49.2339 36.9087 48.5518 37.7312 47.6925 38.3344C46.8669 38.9018 45.9523 39.3273 44.9866 39.5934C42.9463 40.1356 40.7998 40.1356 38.7595 39.5934C37.7938 39.3273 36.8792 38.9018 36.0537 38.3344C35.1943 37.7312 34.5122 36.9087 34.0784 35.9526C33.5682 34.8269 33.3178 33.6009 33.3457 32.3654V20.6461H38.355V32.095C38.355 34.3874 39.5246 35.5336 41.8638 35.5336C44.203 35.5336 45.376 34.3874 45.3829 32.095L45.3911 20.6461Z"></path>
        <path
            d="M53.7833 20.6461H61.3354C64.6006 20.6461 67.0678 21.5033 68.7368 23.2178C70.4059 24.9323 71.2405 27.2322 71.2405 30.1177C71.2405 33.0073 70.4059 35.3079 68.7368 37.0196C67.0678 38.7314 64.6006 39.5886 61.3354 39.5914H53.7833V20.6461ZM66.0991 30.1177C66.0991 26.6901 64.5112 24.9756 61.3354 24.9742H58.7905V35.2611H61.3354C64.5098 35.2611 66.0977 33.5466 66.0991 30.1177Z"></path>
        <path
            d="M73.9216 20.6461H87.5624V24.9763H78.9288V27.8721H86.7513V32.1775H78.9288V35.2632H87.7255V39.5934H73.9216V20.6461Z"></path>
        <path
            d="M95.6347 39.5934H90.6213V20.6461H95.3581L102.774 31.5274C102.702 30.7321 102.667 29.6856 102.667 28.3881V20.6461H107.674V39.5934H102.927L95.5108 28.7389C95.5824 29.5329 95.6182 30.5704 95.6182 31.8514L95.6347 39.5934Z"></path>
        <path d="M109.812 20.6461H125.511V25.1125H120.18V39.5934H115.172V25.1125H109.812V20.6461Z"></path>
        <path
            d="M126.972 25.8163C126.972 24.0124 127.644 22.6316 128.989 21.6739C130.333 20.7162 132.043 20.2346 134.118 20.2291C136.594 20.2291 138.715 20.7348 140.479 21.7462V26.3468C138.854 25.1208 136.869 24.5257 134.524 24.5614C132.918 24.5779 132.116 24.9839 132.116 25.7792C132.116 26.1576 132.359 26.4954 132.846 26.7926C133.418 27.1269 134.033 27.3824 134.673 27.5522C135.478 27.7854 136.269 28.0652 137.042 28.3901C137.858 28.7267 138.649 29.1206 139.41 29.5687C140.202 30.0501 140.856 30.7304 141.305 31.5421C141.754 32.3538 141.983 33.2687 141.969 34.1961C141.969 38.0585 139.443 39.9897 134.39 39.9897C131.628 39.9897 129.201 39.4118 127.108 38.256V33.5294C129.132 34.9395 131.544 35.6867 134.01 35.6677C135.022 35.6677 135.742 35.5728 136.175 35.385C136.375 35.3107 136.545 35.1748 136.662 34.997C136.779 34.8192 136.836 34.6088 136.826 34.3963C136.826 33.9092 136.487 33.4854 135.81 33.1249C135.02 32.7167 134.196 32.377 133.348 32.1094C132.366 31.7854 131.401 31.4106 130.458 30.9866C129.484 30.5455 128.637 29.8654 127.996 29.0093C127.307 28.0899 126.949 26.9647 126.98 25.8163"></path>
    </g>
</svg>